<!-- icon666.com - MILLIONS vector ICONS FREE --><svg version="1.1" id="Capa_1" xmlns="http://www.w3.org/2000/svg" xmlns:xlink="http://www.w3.org/1999/xlink" x="0px" y="0px" viewBox="0 0 409.6 409.6" style="enable-background:new 0 0 409.6 409.6;" xml:space="preserve"><g><g><path d="M409.6,204.16c0-27.776-19.814-52.316-50.821-63.596c13.358-29.092,10.89-61.174-9.165-81.224 c-20.224-20.229-52.685-22.584-81.971-8.832C256.312,19.681,231.828,0,204.16,0c-27.776,0-52.316,19.814-63.596,50.821 c-29.092-13.358-61.174-10.885-81.224,9.165c-20.224,20.224-22.579,52.69-8.832,81.971C19.681,153.288,0,177.771,0,205.44 c0,27.776,19.814,52.316,50.821,63.596c-13.358,29.092-10.89,61.174,9.165,81.224c11.802,11.802,27.771,17.541,44.851,17.536 c12.186,0,24.914-3.021,37.11-8.745c11.32,30.848,35.809,50.55,63.493,50.55c27.776,0,52.321-19.814,63.595-50.826 c11.971,5.499,24.433,8.381,36.367,8.381c17.075,0,33.05-5.74,44.851-17.536c20.224-20.224,22.579-52.69,8.832-81.971 C389.919,256.312,409.6,231.828,409.6,204.16z M342.374,66.58c23.434,23.439,18.104,66.903-11.883,96.891 c-12.273,12.273-36.229,22.897-66.186,29.46c-2.007-10.086-6.518-19.277-12.856-26.895l16.507-16.507 c2.002-2.002,2.002-5.238,0-7.24c-2.002-2.002-5.238-2.002-7.24,0l-16.476,16.476c-7.941-6.81-17.638-11.602-28.324-13.588 c6.559-30.193,17.254-54.395,29.568-66.714C275.476,48.476,318.935,43.151,342.374,66.58z M255.252,204.805 c0,27.822-22.63,50.452-50.452,50.452s-50.453-22.63-50.453-50.452s22.636-50.453,50.453-50.453S255.252,176.983,255.252,204.805z M204.16,10.24c23.654,0,44.713,17.628,54.339,45.112c-7.132,4.301-13.972,9.59-20.255,15.872 c-18.652,18.657-28.293,52.756-32.594,72.929c-0.287-0.005-0.563-0.041-0.85-0.041c-0.548,0-1.08,0.067-1.623,0.082 c-4.28-19.896-13.911-53.781-32.461-72.325c-6.492-6.492-13.578-11.924-20.972-16.297C159.334,27.96,180.434,10.24,204.16,10.24z M66.58,67.226c23.45-23.439,66.903-18.104,96.891,11.884c16.399,16.399,25.323,47.309,29.466,66.186 c-10.086,2.007-19.282,6.513-26.906,12.861l-16.507-16.507c-2.002-2.002-5.238-2.002-7.24,0s-2.002,5.238,0,7.24l16.476,16.476 c-6.81,7.941-11.602,17.638-13.588,28.324c-30.193-6.559-54.39-17.244-66.714-29.568C48.476,134.129,43.146,90.665,66.58,67.226z M10.24,205.44c0-23.654,17.628-44.713,45.112-54.339c4.301,7.132,9.59,13.972,15.872,20.255 c18.621,18.621,52.598,28.262,72.929,32.589c-0.005,0.287-0.041,0.568-0.041,0.855c0,0.548,0.067,1.075,0.082,1.613 c-20.659,4.449-53.949,14.09-72.325,32.466c-6.492,6.492-11.924,13.578-16.297,20.972C27.955,250.266,10.24,229.166,10.24,205.44z M67.226,343.02c-23.434-23.439-18.104-66.903,11.884-96.891c12.273-12.273,36.229-22.897,66.186-29.461 c2.007,10.086,6.513,19.282,12.856,26.9l-16.507,16.507c-2.002,2.002-2.002,5.243,0,7.24c0.998,0.998,2.309,1.5,3.62,1.5 s2.621-0.502,3.62-1.5l16.476-16.476c7.941,6.815,17.638,11.602,28.329,13.594c-6.559,30.193-17.244,54.385-29.568,66.708 C134.123,361.124,90.66,366.449,67.226,343.02z M205.44,399.36c-23.68,0-44.759-17.664-54.369-45.205 c7.137-4.301,14.003-9.498,20.291-15.78c18.616-18.616,28.257-52.593,32.589-72.924c0.287,0.005,0.563,0.041,0.855,0.041 c0.548,0,1.075-0.067,1.618-0.082c4.449,20.659,14.095,53.949,32.466,72.32c6.492,6.492,13.604,11.848,20.997,16.22 C250.307,381.609,229.187,399.36,205.44,399.36z M343.02,342.374c-23.445,23.439-66.903,18.104-96.891-11.883 c-12.268-12.268-22.892-36.224-29.461-66.181c10.086-2.007,19.277-6.518,26.895-12.861l16.507,16.507 c0.998,0.998,2.309,1.5,3.62,1.5c1.311,0,2.621-0.502,3.62-1.5c2.002-1.997,2.002-5.238,0-7.24l-16.476-16.476 c6.815-7.941,11.602-17.638,13.588-28.329c30.188,6.559,54.385,17.249,66.714,29.568 C361.124,275.471,366.454,318.935,343.02,342.374z M354.248,258.499c-4.301-7.132-9.59-13.972-15.872-20.255 c-18.632-18.627-52.623-28.268-72.929-32.589c0.005-0.287,0.041-0.563,0.041-0.85c0-0.548-0.067-1.075-0.082-1.618 c20.659-4.449,53.949-14.09,72.325-32.466c6.492-6.492,11.924-13.578,16.297-20.971c27.617,9.585,45.332,30.684,45.332,54.41 C399.36,227.814,381.732,248.873,354.248,258.499z"></path></g></g></svg>